<svg preserveAspectRatio="none" width="100%" height="100%" overflow="visible" style="display: block;" viewBox="0 0 146.936 72.6528" fill="none" xmlns="http://www.w3.org/2000/svg">
<g id="Bottom">
<path id="M" d="M0 71.3913L0.0161729 1.22171L22.3955 1.2165L38.2492 33.5736L53.9004 1.20917L76.2798 1.20396L76.2636 71.3736L52.9065 71.379L52.9134 41.5242L44.2183 59.3955L32.0509 59.3983L23.364 41.5311L23.3571 71.3859L0 71.3913Z" fill="var(--fill-0, black)"/>
<path id="O" d="M110.323 72.6443C102.505 72.6461 95.8806 71.4444 90.4515 69.039C85.0223 66.6337 80.8605 62.7695 77.9659 57.4465C75.1436 52.1234 73.7335 45.1227 73.7355 36.4444C73.7376 27.6201 75.1509 20.5458 77.9756 15.2215C80.8727 9.8971 85.0364 6.03098 90.4666 3.6231C95.8969 1.21522 102.521 0.0103758 110.34 0.00855045C118.159 0.00672511 124.783 1.20848 130.212 3.61382C135.641 6.01916 139.767 9.88335 142.589 15.2064C145.484 20.5294 146.93 27.6031 146.928 36.4273C146.926 45.1056 145.476 52.107 142.579 57.4314C139.755 62.7558 135.627 66.6219 130.197 69.0298C124.767 71.4376 118.142 72.6425 110.323 72.6443ZM110.328 52.7351C114.817 52.7341 118.038 51.4571 119.994 48.9042C122.021 46.3512 123.036 42.1941 123.037 36.4329C123.039 30.3799 122.026 26.1503 120 23.7442C118.045 21.2651 114.824 20.0261 110.336 20.0271C105.775 20.0282 102.48 21.2687 100.453 23.7488C98.4974 26.1558 97.519 30.3858 97.5176 36.4388C97.5163 42.2001 98.4927 46.3567 100.447 48.9087C102.473 51.4607 105.767 52.7362 110.328 52.7351Z" fill="var(--fill-0, black)"/>
</g>
</svg>
