<svg preserveAspectRatio="none" width="100%" height="100%" overflow="visible" style="display: block;" viewBox="0 0 290 290.999" fill="none" xmlns="http://www.w3.org/2000/svg">
<path id="Union" d="M110.199 0.448863C114.201 -0.591652 118.453 0.197632 121.828 2.60707L145.642 19.6119L168.331 2.76136C171.659 0.289468 175.895 -0.579342 179.915 0.38441C183.934 1.34822 187.331 4.04723 189.205 7.76625L202.521 34.2047L230.35 29.8004C234.445 29.1524 238.615 30.3612 241.746 33.1041C244.877 35.8473 246.651 39.8456 246.595 44.0319L246.197 73.7643L272.805 83.0387C276.704 84.3977 279.816 87.4168 281.318 91.2965C282.82 95.1764 282.562 99.5269 280.61 103.197L266.684 129.381L286.075 149.759C288.963 152.795 290.37 156.968 289.917 161.153C289.463 165.338 287.195 169.104 283.725 171.436L259.117 187.976L266.847 215.244C267.989 219.27 267.313 223.601 265.002 227.078C262.69 230.555 258.978 232.825 254.856 233.282L225.559 236.529L219.905 264.353C219.07 268.464 216.478 271.991 212.825 273.99C209.172 275.989 204.832 276.255 200.966 274.716L173.506 263.79L155.502 285.833C152.861 289.066 148.94 290.956 144.791 290.999C140.641 291.041 136.685 289.231 133.98 286.052L114.668 263.357L88.9215 274.301C85.0981 275.927 80.7594 275.765 77.0651 273.859C73.3708 271.953 70.6973 268.498 69.7594 264.417L63.0993 235.431L34.9508 232.762C30.8392 232.373 27.1042 230.178 24.737 226.76C22.3697 223.342 21.6097 219.046 22.6569 215.011L30.0973 186.34L6.44008 170.921C2.95539 168.649 0.640464 164.94 0.113911 160.785C-0.412551 156.63 0.902773 152.452 3.70864 149.367L23.4 127.719L9.53383 102.918C7.49702 99.2745 7.15258 94.9096 8.5934 90.9869C10.0343 87.0643 13.1139 83.9828 17.0104 82.5631L44.651 72.4928L43.985 44.2614C43.8876 40.1336 45.5725 36.1672 48.6012 33.3942C51.6299 30.6213 55.703 29.316 59.7604 29.818L88.8493 33.4166L101.048 8.00941C102.851 4.25402 106.197 1.48938 110.199 0.448863ZM83.4645 261.204L118.657 246.244L144.649 276.79L169.156 246.785L144.649 276.789L118.657 246.243L83.4645 261.204ZM14.069 158.981L46.2907 179.984H46.2916L14.069 158.98V158.981ZM58.9567 82.3864L21.7838 95.9303L40.6793 129.726H40.6803L21.7838 95.9303L58.9577 82.3864L58.0495 43.9225L58.9567 82.3864Z" fill="var(--fill-0, #CAD3C1)"/>
</svg>
