<svg preserveAspectRatio="none" width="100%" height="100%" overflow="visible" style="display: block;" viewBox="0 0 146.937 72.6522" fill="none" xmlns="http://www.w3.org/2000/svg">
<g id="Top">
<path id="M" d="M1.14059e-06 71.3908L0.0163414 1.22197L22.3959 1.21671L38.2497 33.5734L53.9012 1.20931L76.2808 1.20405L76.2645 71.3728L53.8407 71.3781L53.8477 41.5237L44.2188 59.395L32.0513 59.3979L22.4434 41.5311L22.4365 71.3855L1.14059e-06 71.3908Z" fill="var(--fill-0, black)"/>
<path id="O" d="M110.324 72.6437C102.505 72.6455 95.8806 71.4438 90.4514 69.0385C85.0222 66.6332 80.8603 62.7691 77.9657 57.4461C75.1434 52.1231 73.7333 45.1225 73.7354 36.4442C73.7374 27.6201 75.1508 20.5459 77.9755 15.2216C80.8727 9.89724 85.0364 6.03114 90.4667 3.62328C95.897 1.21542 102.522 0.0105686 110.34 0.00872471C118.159 0.00688079 124.783 1.20861 130.213 3.61391C135.642 6.01921 139.768 9.88335 142.59 15.2063C145.484 20.5293 146.931 27.6028 146.929 36.427C146.927 45.1052 145.477 52.1065 142.58 57.4309C139.755 62.7552 135.628 66.6212 130.197 69.0291C124.767 71.437 118.142 72.6418 110.324 72.6437ZM110.328 52.7347C114.817 52.7336 118.039 51.4567 119.994 48.9038C122.022 46.3509 123.036 42.1938 123.038 36.4326C123.039 30.3797 122.026 26.1502 120 23.7441C118.046 21.265 114.824 20.026 110.336 20.0271C105.775 20.0282 102.48 21.2687 100.453 23.7487C98.4975 26.1557 97.5191 30.3857 97.5177 36.4386C97.5164 42.1998 98.4928 46.3564 100.447 48.9084C102.473 51.4603 105.767 52.7358 110.328 52.7347Z" fill="var(--fill-0, black)"/>
</g>
</svg>
